<?xml version="1.0" standalone="no"?>
<!DOCTYPE svg PUBLIC "-//W3C//DTD SVG 20010904//EN"
 "http://www.w3.org/TR/2001/REC-SVG-20010904/DTD/svg10.dtd">
<svg version="1.0" xmlns="http://www.w3.org/2000/svg"
 width="40.000000pt" height="60.000000pt" viewBox="0 0 1920.000000 1080.000000"
 preserveAspectRatio="xMidYMid meet">
<metadata>
Created by potrace 1.15, written by Peter Selinger 2001-2017
</metadata>
<g transform="translate(0.000000,1080.000000) scale(0.100000,-0.100000)"
fill="#000000" stroke="none">
<path d="M7890 9259 c-92 -23 -372 -161 -483 -236 -45 -30 -122 -89 -170 -130
l-89 -75 -51 22 c-154 64 -372 97 -523 80 -386 -43 -638 -302 -778 -799 -54
-193 -76 -342 -76 -518 0 -150 11 -245 46 -388 45 -187 38 -216 -123 -482
-148 -245 -301 -553 -373 -746 -190 -515 -219 -1024 -83 -1462 35 -111 41
-116 58 -41 12 57 18 13 16 -118 -6 -354 77 -688 236 -949 21 -34 37 -66 35
-70 -1 -5 2 -6 8 -2 5 3 10 2 10 -3 0 -5 17 -29 38 -53 88 -102 126 -140 139
-135 8 3 11 2 8 -3 -3 -5 -1 -12 5 -16 5 -3 30 -47 54 -98 79 -165 193 -307
321 -399 70 -50 249 -138 282 -138 18 0 41 -13 66 -36 20 -19 37 -32 37 -29 0
3 11 -5 24 -19 13 -15 26 -26 30 -26 13 0 55 -48 48 -56 -4 -4 -2 -4 5 0 6 3
23 -5 37 -19 14 -14 32 -25 41 -25 9 0 14 -4 11 -8 -7 -12 113 -74 126 -66 6
4 8 2 4 -4 -4 -6 19 -16 61 -26 38 -8 95 -24 127 -36 33 -11 68 -18 78 -14 21
6 92 -32 123 -66 11 -12 33 -29 49 -37 16 -8 34 -19 40 -24 39 -33 90 -69 96
-69 4 0 18 -9 31 -20 40 -32 42 -34 84 -53 22 -10 51 -26 65 -35 14 -9 27 -17
30 -17 3 0 31 -13 62 -28 31 -15 60 -27 63 -27 3 0 27 -10 53 -22 26 -11 54
-21 62 -21 8 1 50 -10 92 -23 139 -42 212 -57 303 -60 50 -1 143 -6 208 -10
128 -8 146 0 80 35 l-38 20 45 -4 c55 -5 124 -17 180 -30 3 -1 22 -5 42 -9 22
-5 35 -12 31 -19 -3 -5 -2 -7 4 -4 5 3 42 -2 82 -13 40 -10 105 -24 145 -30
39 -7 78 -16 86 -20 8 -4 47 -11 85 -15 39 -4 120 -13 180 -21 259 -33 658
-29 975 12 115 15 348 57 405 74 199 59 412 98 373 68 -9 -7 -24 -18 -34 -24
-37 -22 -6 -30 83 -22 48 5 138 10 198 12 112 4 238 25 307 53 21 8 44 13 52
10 7 -3 18 -1 24 5 6 6 28 14 49 18 44 9 146 51 151 63 2 4 9 7 16 7 7 0 39
14 71 30 32 17 65 30 72 30 8 0 16 7 19 15 4 8 10 13 14 10 4 -3 23 8 43 23
19 15 49 35 67 44 19 11 29 22 24 30 -5 7 -2 9 9 5 8 -3 21 1 27 9 7 8 19 14
28 14 8 0 12 3 9 6 -8 8 109 103 143 116 14 5 43 11 65 13 38 3 148 36 189 57
10 6 16 6 13 1 -3 -5 7 -7 25 -5 21 3 26 7 17 13 -8 5 -9 9 -4 10 44 4 56 8
80 27 15 12 32 22 37 22 6 0 28 16 50 35 23 19 45 32 49 29 5 -3 9 0 9 6 0 6
5 8 10 5 6 -3 10 1 10 9 0 8 7 19 15 23 8 5 36 30 64 56 27 26 53 47 58 47 6
0 17 8 27 19 10 11 25 16 40 14 22 -5 193 70 207 91 4 5 12 5 19 1 8 -5 11 -4
7 2 -3 5 8 18 26 28 18 10 37 26 44 34 6 9 16 16 21 16 13 0 82 62 82 74 0 5
8 16 18 23 19 14 86 103 119 158 26 42 93 178 93 185 -1 9 28 35 38 35 5 0 31
24 58 53 267 281 404 673 404 1156 0 88 4 141 9 136 5 -6 11 -20 13 -33 9 -65
40 3 83 183 42 181 50 250 49 475 -1 185 -5 235 -27 360 -73 406 -224 777
-510 1253 -161 266 -168 295 -123 482 86 353 53 715 -98 1105 -68 175 -141
285 -264 402 -119 112 -262 177 -439 198 -147 18 -361 -14 -520 -77 l-62 -25
-105 89 c-122 102 -257 186 -438 273 -221 105 -164 100 -1048 100 -854 0 -805
4 -946 -71 -65 -34 -84 -39 -139 -39 -55 0 -73 5 -142 42 -134 71 -94 68 -948
67 -731 0 -774 -1 -845 -20z m755 -454 c670 -30 705 -33 779 -59 108 -39 151
-75 298 -243 49 -57 95 -103 102 -103 8 0 55 48 107 106 175 199 248 246 411
264 142 16 1223 62 1310 57 62 -4 95 -13 169 -47 110 -50 278 -153 454 -279
72 -52 138 -96 147 -98 9 -3 38 6 65 20 120 61 187 86 258 94 28 3 57 9 65 13
39 21 299 -2 335 -30 6 -4 27 -13 49 -20 77 -25 183 -116 260 -225 175 -245
225 -561 145 -909 -23 -99 -54 -146 -96 -146 -22 0 -23 3 -23 74 0 107 -26
289 -56 392 -52 180 -143 301 -256 341 -74 25 -185 22 -261 -7 -32 -12 -61
-28 -64 -36 -3 -8 17 -38 48 -71 115 -126 293 -380 424 -608 183 -318 511
-1052 520 -1163 l3 -42 -26 20 c-55 43 -146 100 -159 100 -18 0 -16 -10 8 -45
35 -52 85 -157 107 -225 60 -186 121 -515 113 -613 -1 -12 -18 0 -60 45 -33
35 -63 59 -67 55 -4 -4 2 -67 14 -140 46 -275 56 -379 56 -592 1 -172 -2 -225
-18 -292 -10 -45 -24 -84 -31 -87 -8 -3 -29 19 -51 52 -50 76 -106 142 -120
142 -8 0 -13 -56 -17 -182 -11 -332 -71 -568 -198 -775 -49 -81 -149 -204
-182 -226 l-22 -14 0 126 c0 103 -3 133 -19 164 -10 20 -24 37 -30 37 -7 0
-18 -29 -26 -67 -30 -153 -163 -357 -360 -553 -189 -189 -499 -426 -523 -400
-9 10 -9 11 0 6 6 -3 15 -1 19 5 4 7 3 9 -2 6 -6 -3 -16 -2 -23 3 -11 6 -12
17 -2 56 19 72 27 239 12 248 -7 5 -51 -30 -113 -89 -205 -195 -487 -349 -838
-459 -492 -152 -1145 -233 -1664 -206 -959 51 -1687 283 -2087 667 -60 58
-103 92 -110 87 -14 -8 -6 -187 11 -244 11 -40 4 -74 -13 -63 -8 5 -8 2 0 -8
10 -13 10 -16 -2 -16 -8 0 -15 3 -15 6 0 3 -12 12 -27 19 -49 21 -275 196
-394 305 -240 218 -406 457 -439 631 -14 76 -29 83 -56 29 -14 -29 -19 -65
-21 -146 -1 -59 -5 -113 -9 -119 -4 -7 -3 -8 4 -4 7 4 12 2 12 -3 0 -24 -27
-8 -78 47 -218 233 -332 581 -332 1013 0 95 -3 119 -14 119 -16 0 -65 -59
-121 -143 -47 -70 -57 -65 -82 41 -14 62 -18 118 -17 287 0 214 17 386 63 633
15 81 16 102 5 102 -13 0 -91 -77 -107 -106 -18 -31 -27 -12 -21 44 18 175 68
424 116 572 23 72 66 163 106 222 13 21 22 41 18 45 -8 9 -67 -22 -121 -62
-22 -17 -48 -34 -58 -38 -17 -6 -18 -3 -12 35 4 24 40 124 80 223 256 634 524
1123 799 1458 45 54 89 109 100 122 10 13 16 28 12 33 -16 27 -122 55 -206 56
-73 0 -93 -4 -141 -27 -107 -52 -184 -162 -234 -333 -29 -101 -55 -283 -55
-390 0 -71 -1 -74 -23 -74 -37 0 -73 48 -90 120 -87 361 -44 663 131 925 49
74 180 205 205 205 5 0 21 9 36 19 15 11 43 22 64 26 20 4 37 11 37 15 0 4 7
11 16 14 9 4 13 2 8 -5 -4 -8 -1 -8 12 -1 11 5 25 7 33 4 8 -2 11 0 8 5 -5 8
133 9 276 3 9 -1 17 -6 17 -12 0 -5 7 -7 16 -4 9 3 21 3 27 -1 7 -4 20 -9 30
-10 10 -2 31 -10 47 -18 16 -8 34 -15 41 -15 6 0 43 -16 82 -36 38 -19 77 -34
86 -31 9 2 83 52 164 110 231 165 433 281 536 307 41 11 231 7 716 -15z"/>
<path d="M11447 7611 c-439 -126 -809 -233 -822 -239 -40 -18 -32 -53 24 -105
84 -79 80 -79 501 -2 457 84 612 111 674 119 11 2 28 6 36 9 8 4 80 17 160 31
138 23 276 27 338 12 12 -3 32 -8 44 -11 11 -2 76 -20 144 -40 68 -19 134 -35
147 -35 32 0 53 25 41 50 -5 10 -85 105 -179 211 -175 198 -213 229 -280 228
-16 0 -389 -103 -828 -228z"/>
<path d="M7425 7451 c-16 -10 -90 -79 -162 -154 -129 -131 -153 -167 -118
-180 8 -4 70 9 137 28 68 19 132 36 143 37 11 2 25 7 32 11 6 4 23 3 36 -2 18
-7 27 -7 30 2 2 8 181 11 701 12 l698 0 49 55 c56 63 67 87 48 106 -10 9 -160
22 -574 48 -308 20 -624 41 -702 46 -215 15 -283 13 -318 -9z"/>
<path d="M9705 7134 c-73 -16 -148 -40 -200 -66 -55 -28 -66 -29 -130 -24
-593 55 -945 71 -1357 62 -386 -8 -603 -20 -884 -52 -381 -42 -410 -50 -441
-122 -12 -28 -12 -47 -2 -110 6 -42 20 -100 30 -128 16 -43 26 -54 61 -70 23
-10 57 -39 78 -65 33 -42 42 -68 80 -221 82 -334 145 -511 191 -541 33 -21
127 -58 164 -64 17 -3 38 -9 48 -14 9 -5 17 -7 17 -5 0 3 12 1 28 -5 15 -6 43
-12 62 -14 19 -2 53 -7 75 -10 61 -10 101 -15 210 -23 86 -7 179 -7 545 -1 83
2 128 -9 141 -33 5 -10 14 -16 20 -13 24 15 4 -34 -55 -132 -137 -232 -175
-339 -183 -508 -5 -105 -1 -129 76 -550 212 -1146 306 -1539 402 -1680 28 -42
108 -120 122 -120 4 0 11 -5 15 -10 4 -6 19 -16 34 -24 15 -8 24 -19 21 -24
-4 -6 0 -8 10 -4 10 3 17 3 17 -2 0 -12 60 -39 185 -85 59 -21 120 -37 315
-82 14 -3 50 -10 80 -14 30 -5 89 -14 130 -20 180 -28 490 -3 750 61 125 31
313 98 323 115 5 8 12 12 17 9 10 -6 75 30 130 75 141 113 180 196 275 582 53
212 106 469 174 833 27 149 74 396 102 550 45 237 53 297 52 390 -2 183 -46
312 -177 514 -37 57 -68 107 -69 113 -1 5 23 23 53 39 52 29 59 30 135 24 146
-13 464 -11 578 2 62 7 130 15 152 17 104 12 126 16 144 26 11 5 27 7 35 4 9
-3 16 -1 16 4 0 6 8 10 18 10 20 -1 148 47 179 68 48 31 109 200 193 542 48
195 72 239 154 283 39 20 50 32 65 74 28 76 44 195 31 231 -15 38 -39 64 -70
76 -31 12 -266 43 -475 62 -316 30 -557 39 -965 39 -429 -1 -625 -9 -1008 -44
l-223 -20 -82 35 c-45 19 -111 42 -147 50 -59 14 -216 20 -265 10z m-1050
-279 c396 -28 458 -39 491 -91 14 -21 10 -30 -82 -176 -108 -171 -301 -481
-357 -574 -42 -70 -21 -63 -267 -90 -194 -21 -632 -25 -770 -6 -109 15 -293
58 -331 77 -14 8 -42 31 -61 53 -32 35 -40 56 -71 188 -37 157 -62 295 -73
405 -9 92 0 104 123 163 69 32 214 52 518 70 124 8 678 -4 880 -19z m3400 4
c50 -6 97 -10 105 -10 76 0 250 -42 250 -61 0 -4 6 -8 13 -8 7 0 28 -15 46
-34 l34 -35 -7 -73 c-14 -135 -69 -416 -103 -518 -24 -72 -75 -116 -166 -145
-207 -66 -509 -88 -859 -65 -183 13 -400 38 -409 48 -3 4 -52 84 -109 177 -57
94 -166 268 -242 389 l-139 219 23 24 c36 39 67 50 168 62 420 46 1130 62
1395 30z m-2146 -69 c10 -5 21 -7 23 -4 10 9 122 -64 159 -103 104 -109 400
-556 831 -1253 154 -250 186 -317 195 -415 10 -109 -50 -443 -156 -870 -151
-607 -262 -954 -323 -1011 -95 -89 -279 -149 -588 -194 -183 -27 -288 -27
-470 0 -318 47 -514 113 -598 203 -29 31 -61 114 -127 327 -114 374 -210 749
-280 1095 -78 390 -80 474 -17 608 77 164 829 1330 948 1471 65 76 149 130
238 152 54 13 135 11 165 -6z"/>
<path d="M9670 5764 c-201 -37 -441 -103 -472 -130 -11 -11 -63 -71 -115 -134
-90 -110 -94 -117 -88 -153 10 -65 45 -125 108 -183 86 -79 126 -95 256 -100
148 -5 251 -23 251 -44 0 -4 7 -11 16 -14 9 -4 13 -2 8 5 -4 7 7 1 25 -12 30
-22 43 -38 19 -23 -7 5 -8 3 -4 -5 5 -7 11 -10 14 -7 3 4 18 -6 34 -21 l28
-27 0 -352 0 -353 -32 -6 c-103 -18 -208 -26 -413 -31 -285 -6 -293 -7 -301
-40 -11 -42 13 -54 147 -76 159 -25 534 -36 676 -19 331 40 615 167 788 352
86 91 154 205 155 256 0 19 -14 9 -72 -53 -143 -150 -356 -259 -638 -327 -58
-14 -122 -28 -142 -32 l-38 -6 0 345 0 344 38 31 c59 50 62 52 62 44 0 -4 4
-3 8 3 4 6 27 22 52 35 39 19 65 24 190 29 179 8 213 21 310 118 54 54 71 79
84 122 9 29 16 62 16 71 0 22 -186 252 -220 272 -29 17 -204 68 -340 98 -92
20 -347 34 -410 23z"/>
</g>
</svg>
